<?xml version="1.0" encoding="UTF-8"?>
<svg id="Layer_1" data-name="Layer 1" xmlns="http://www.w3.org/2000/svg"  width="250" height="48" viewBox="0 0 684.93 200">
  <defs>
    <style>
      .cls-1 {
        fill: #7c59a4;
      }

      .cls-2 {
        fill: #141215;
      }

      .cls-3 {
        fill: #f5eb37;
      }

      .cls-4 {
        fill: #cdafd3;
      }

      .cls-5 {
        fill: #fff4eb;
      }

      .cls-6 {
        fill: #a382bb;
      }
    </style>
  </defs>
  <rect class="cls-3" width="219.85" height="199.99"/>
  <rect class="cls-5" x="204.05" width="480.88" height="199.99"/>
  <path class="cls-2" d="M288.39,70.29h17.46v14.15h-17.46v53.24h-16.11v-53.24h-10.74v-14.15h10.74v-10.11c0-15.63,11.14-24.93,25.91-24.93,3.36,0,6.71,.41,9,1.08v14.83c-2.15-.67-4.83-1.08-7.52-1.08-6.98,0-11.28,3.64-11.28,10.51v9.7Z"/>
  <path class="cls-2" d="M330.68,137.68h-16.11V70.29h16.11v10.92c4.83-7.95,12.75-12.27,22.55-12.27,1.21,0,2.55,0,3.36,.27v17.65c-1.88-.67-4.3-1.08-6.98-1.08-11.95,0-18.93,6.2-18.93,17.52v34.36h0Z"/>
  <path class="cls-2" d="M373.91,97.93h34.64c-1.75-9.43-7.92-14.83-17.32-14.83s-15.57,5.39-17.32,14.83Zm50.34,11.45h-50.48c1.75,9.84,8.19,15.5,18.13,15.5,7.11,0,11.28-2.7,13.43-7.41h17.46c-4.03,14.01-15.71,21.56-31.55,21.56-19.19,0-33.29-14.42-33.29-35.04s14.1-35.04,33.29-35.04,33.29,14.42,33.29,35.04c0,1.88-.14,3.64-.27,5.39h0Z"/>
  <path class="cls-2" d="M481.58,103.99c0-12.13-7.78-20.21-18.13-20.21s-18.13,8.08-18.13,20.21,7.78,20.21,18.13,20.21,18.13-8.08,18.13-20.21Zm-17.46,68.74c-17.85,0-31.15-11.99-33.56-29.65h16.24c1.48,8.9,8.05,14.83,17.32,14.83,11.01,0,17.46-8.36,17.46-20.21v-8.49c-4.97,6.2-12.08,9.84-20.14,9.84-18.4,0-32.22-14.42-32.22-35.04s13.83-35.04,32.22-35.04c8.05,0,15.17,3.64,20.14,9.84v-8.49h16.11v67.39c0,20.62-15.04,35.04-33.56,35.04h0Z"/>
  <path class="cls-2" d="M534.34,125.55c9.4,0,17.99-5.39,17.99-15.63v-3.1c-10.74,4.45-27.39,3.1-27.39,11.72,0,4.72,4.03,7.01,9.39,7.01h0Zm17.99,2.15c-4.3,7.95-12.08,11.32-21.35,11.32-11.55,0-22.55-5.79-22.55-19.41,0-28.98,43.64-16.04,43.64-29.51,0-5.26-5.37-8.36-12.35-8.36-7.38,0-12.49,3.91-12.49,11.45h-16.78c0-17.52,14.23-24.26,29.27-24.26s28.46,6.07,28.46,21.83v46.9h-15.85v-9.98Z"/>
  <path class="cls-2" d="M611.12,124.2c2.28,0,5.1-.41,7.38-1.21v14.42c-2.42,.81-6.71,1.62-10.61,1.62-13.29,0-22.96-5.26-22.96-23.32v-31.27h-10.74v-14.15h10.74v-20.21h16.11v20.21h17.46v14.15h-17.46v30.19c0,6.61,3.09,9.57,10.07,9.57Z"/>
  <rect class="cls-4" x="133.72" y="46.45" width="70.33" height="153.55"/>
  <rect class="cls-6" x="63.28" y="91.66" width="70.44" height="108.33"/>
  <rect class="cls-1" x="0" y="136.67" width="63.27" height="63.32"/>
</svg>
